<svg width="104" height="160" viewBox="0 0 104 160" fill="none" xmlns="http://www.w3.org/2000/svg">
<g clip-path="url(#clip0_3615_9671)">
<path d="M37.7721 156.82C28.1243 122.746 18.4984 88.0971 10.6639 53.3716C7.97528 41.6376 5.45677 29.9202 2.65176 18.3313L3.90298 18.0168L5.59382 24.9452C7.30119 31.7036 9.11935 38.9914 10.9007 45.6781L10.0401 45.1323C34.7009 42.3136 57.1466 58.5059 72.495 76.2998C87.7983 94.1575 101.612 117.311 101.207 141.573C101.143 142.377 100.572 143.027 99.8203 143.197C94.5725 144.437 89.3286 145.615 84.0872 146.802C69.7959 150.031 52.1601 153.721 37.7721 156.82ZM37.9797 156.475C55.7903 151.351 81.3092 144.316 98.9258 139.627L97.5389 141.251C97.6343 138.555 97.3073 135.557 96.8757 132.826C94.4506 118.443 87.9743 105.053 80.0322 92.9152C65.1463 70.3179 39.5011 44.4645 10.3266 46.5877C9.94469 46.6694 9.5476 46.4238 9.46597 46.0419C8.36215 41.4201 7.27507 36.7835 6.13261 32.172L4.42246 25.2487L2.66401 18.3384C2.55859 17.9836 2.7759 17.6355 3.11397 17.5449C3.4617 17.4517 3.80981 17.669 3.90298 18.0168C16.7245 63.9743 28.1299 109.669 37.9797 156.475Z" fill="#FF5E54"/>
</g>
<defs>
<clipPath id="clip0_3615_9671">
<rect width="68.21" height="146.4" fill="white" transform="translate(0.216309 18.3213) rotate(-15)"/>
</clipPath>
</defs>
</svg>
