<svg width="262" height="50" viewBox="0 0 262 50" fill="none" xmlns="http://www.w3.org/2000/svg">
<path d="M16.4042 38.8479C14.3172 38.8523 12.2499 38.4447 10.321 37.6487C8.39223 36.8526 6.63995 35.6837 5.16497 34.2093L4.6567 33.7017C3.17591 32.2314 2.00187 30.4824 1.20256 28.5558C0.40325 26.6294 -0.00546102 24.5637 6.80484e-05 22.4784C-0.00606446 20.3924 0.402356 18.3259 1.20169 16.3985C2.00101 14.4712 3.17536 12.7215 4.6567 11.2506L5.16497 10.743C6.63742 9.26435 8.38891 8.09198 10.3182 7.29382C12.2474 6.49565 14.316 6.08751 16.4042 6.09303C18.4925 6.08751 20.5611 6.49565 22.4903 7.29382C24.4195 8.09198 26.1711 9.26435 27.6435 10.743L45.8894 28.9516C47.6141 30.6683 49.9501 31.6323 52.3854 31.6323C54.8207 31.6323 57.1567 30.6683 58.8815 28.9516C60.6007 27.2292 61.5661 24.8966 61.5661 22.4648C61.5661 20.0329 60.6007 17.7003 58.8815 15.978L52.8664 9.97143L43.8152 19.012L38.819 14.0228L52.8687 0L63.8732 10.9934C66.9177 14.0397 68.6276 18.1677 68.6276 22.4716C68.6276 26.7755 66.9177 30.9035 63.8732 33.9498C62.3674 35.4614 60.5763 36.6597 58.6037 37.4754C56.631 38.2912 54.5159 38.7082 52.3808 38.7023C50.2454 38.7085 48.1299 38.2917 46.1568 37.4759C44.1838 36.6601 42.3923 35.4616 40.8863 33.9498L22.6404 15.7299C21.8227 14.9083 20.8498 14.2569 19.7782 13.8135C18.7065 13.3701 17.5574 13.1434 16.3974 13.1466C15.2374 13.1434 14.0883 13.3701 13.0167 13.8135C11.945 14.2569 10.9722 14.9083 10.1544 15.7299L9.64612 16.2374C8.82339 17.0541 8.1711 18.0256 7.72702 19.0957C7.28293 20.1658 7.0559 21.3133 7.05908 22.4716C7.0559 23.63 7.28293 24.7774 7.72702 25.8475C8.1711 26.9176 8.82339 27.8891 9.64612 28.7058L10.1544 29.2133C11.8111 30.8648 14.0565 31.7923 16.3974 31.7923C18.7384 31.7923 20.9836 30.8648 22.6404 29.2133L25.444 26.4138L30.4402 31.4029L27.6367 34.2024C26.1629 35.6772 24.4121 36.8467 22.4844 37.6439C20.5569 38.4411 18.4906 38.8502 16.4042 38.8479Z" fill="#FF5E54"/>
<path d="M94.8667 3.62588C97.2044 3.62588 99.2951 3.98805 101.139 4.71239C103.016 5.40381 104.629 6.32569 105.979 7.47805C107.329 8.59749 108.415 9.86508 109.238 11.2808C110.061 12.6637 110.621 14.063 110.917 15.4787H103.312C103.081 14.7214 102.719 13.9971 102.225 13.3057C101.764 12.5814 101.172 11.9558 100.447 11.429C99.7231 10.8693 98.8835 10.4413 97.9287 10.1449C96.9739 9.81569 95.9368 9.65107 94.8173 9.65107C93.3357 9.65107 91.9694 9.94739 90.7182 10.54C89.4671 11.0997 88.3806 11.9064 87.4587 12.96C86.5697 13.9806 85.8619 15.2318 85.3351 16.7134C84.8412 18.1621 84.5943 19.7589 84.5943 21.5039C84.5943 23.1172 84.8412 24.6482 85.3351 26.0969C85.8289 27.5456 86.5203 28.8131 87.4093 29.8997C88.3312 30.9862 89.4177 31.8587 90.6688 32.5172C91.9529 33.1427 93.3686 33.4555 94.9161 33.4555C96.1343 33.4555 97.2208 33.2744 98.1756 32.9123C99.1634 32.5501 100.019 32.0727 100.744 31.48C101.468 30.8874 102.061 30.2124 102.522 29.4552C103.016 28.6979 103.394 27.9077 103.658 27.0846H111.51C110.983 28.7967 110.242 30.41 109.288 31.9245C108.333 33.4061 107.164 34.7066 105.781 35.8261C104.398 36.9455 102.785 37.8345 100.941 38.493C99.0975 39.1515 97.0233 39.4807 94.7186 39.4807C92.1175 39.4807 89.7469 39.0198 87.6069 38.0979C85.4668 37.176 83.6394 35.9249 82.1249 34.3445C80.6104 32.7312 79.4416 30.8215 78.6185 28.6156C77.7953 26.4097 77.3838 24.0226 77.3838 21.4545C77.3838 18.8864 77.8118 16.5158 78.6678 14.3428C79.5568 12.1698 80.775 10.2931 82.3225 8.71272C83.8699 7.09942 85.7137 5.84829 87.8538 4.95932C89.9939 4.07036 92.3315 3.62588 94.8667 3.62588Z" fill="white"/>
<path d="M113.287 2.83569H119.954V17.7011H120.152C120.975 16.3841 121.996 15.4458 123.214 14.8861C124.465 14.2934 125.765 13.9971 127.115 13.9971C128.432 13.9971 129.634 14.2276 130.721 14.6885C131.84 15.1165 132.795 15.775 133.585 16.664C134.375 17.553 134.984 18.6889 135.412 20.0717C135.873 21.4216 136.104 23.002 136.104 24.8128V38.3942H129.437V25.2079C129.437 23.43 129.041 22.0965 128.251 21.2076C127.461 20.3186 126.375 19.8741 124.992 19.8741C123.51 19.8741 122.292 20.3845 121.337 21.4051C120.415 22.3929 119.954 23.8909 119.954 25.8993V38.3942H113.287V2.83569Z" fill="white"/>
<path d="M138.595 14.7379H145.262V38.3942H138.595V14.7379ZM138.446 3.42834H145.459V9.79923H138.446V3.42834Z" fill="white"/>
<path d="M148.083 2.83569H154.75V38.3942H148.083V2.83569Z" fill="white"/>
<path d="M157.571 2.83569H164.238V38.3942H157.571V2.83569Z" fill="white"/>
<path d="M178.912 4.71239C181.941 4.71239 184.608 5.15687 186.913 6.04583C189.218 6.9348 191.144 8.153 192.691 9.70046C194.272 11.215 195.457 12.9929 196.247 15.0342C197.037 17.0756 197.432 19.2486 197.432 21.5533C197.432 23.8251 197.021 25.9816 196.198 28.023C195.375 30.0643 194.156 31.8587 192.543 33.4061C190.963 34.9206 189.02 36.1389 186.715 37.0607C184.411 37.9497 181.777 38.3942 178.814 38.3942H167.356V4.71239H178.912ZM178.665 32.1715C180.641 32.1715 182.353 31.8916 183.802 31.3319C185.283 30.7722 186.485 30.0149 187.407 29.0601C188.362 28.1053 189.07 26.9858 189.531 25.7018C189.991 24.3848 190.222 23.002 190.222 21.5533C190.222 19.9729 189.975 18.5407 189.481 17.2566C188.987 15.9397 188.263 14.8202 187.308 13.8983C186.353 12.9435 185.152 12.2192 183.703 11.7253C182.254 11.1985 180.575 10.9351 178.665 10.9351H174.418V32.1715H178.665Z" fill="white"/>
<path d="M222.338 38.3942H215.918V35.431H215.72C214.963 36.4516 213.975 37.3406 212.757 38.0979C211.539 38.8222 209.958 39.1844 208.016 39.1844C206.863 39.1844 205.645 38.9374 204.361 38.4436C203.11 37.9826 201.958 37.2418 200.904 36.2212C199.85 35.2005 198.978 33.9 198.287 32.3196C197.595 30.7063 197.249 28.7802 197.249 26.5414C197.249 24.6317 197.546 22.9197 198.138 21.4051C198.764 19.8577 199.587 18.5407 200.608 17.4542C201.661 16.3677 202.863 15.5446 204.213 14.9848C205.563 14.3922 206.995 14.0959 208.51 14.0959C209.431 14.0959 210.255 14.2111 210.979 14.4416C211.736 14.6391 212.411 14.919 213.004 15.2812C213.596 15.6104 214.107 16.0055 214.535 16.4664C214.996 16.8945 215.391 17.3389 215.72 17.7999H215.918V14.7379H222.338V38.3942ZM204.015 26.5907C204.015 27.4468 204.131 28.2864 204.361 29.1095C204.624 29.9326 205.003 30.6734 205.497 31.3319C205.991 31.9574 206.616 32.4678 207.374 32.8629C208.131 33.225 209.036 33.4061 210.09 33.4061C210.88 33.4061 211.621 33.2415 212.312 32.9123C213.037 32.583 213.662 32.1221 214.189 31.5294C214.749 30.9368 215.193 30.2289 215.523 29.4058C215.852 28.5498 216.016 27.6279 216.016 26.6401C216.016 25.6195 215.868 24.6811 215.572 23.8251C215.276 22.969 214.864 22.2447 214.337 21.6521C213.81 21.0594 213.185 20.5985 212.461 20.2692C211.736 19.94 210.962 19.7754 210.139 19.7754C209.086 19.7754 208.18 19.9729 207.423 20.368C206.666 20.7631 206.024 21.2899 205.497 21.9484C205.003 22.5739 204.624 23.2983 204.361 24.1214C204.131 24.9116 204.015 25.7347 204.015 26.5907Z" fill="white"/>
<path d="M232.655 50.0001H226.333L230.679 38.1966L222.086 14.7379H229L232.408 25.0104C232.671 25.8664 232.951 26.8212 233.247 27.8748C233.576 28.8955 233.823 29.8832 233.988 30.838H234.186C234.416 29.6856 234.647 28.6979 234.877 27.8748C235.107 27.0188 235.387 26.0639 235.717 25.0104L239.025 14.7379H245.594L232.655 50.0001Z" fill="white"/>
<path d="M255.576 21.1088C255.511 20.2528 255.231 19.5943 254.737 19.1333C254.243 18.6724 253.617 18.4419 252.86 18.4419C252.07 18.4419 251.461 18.6559 251.033 19.0839C250.638 19.512 250.44 19.9894 250.44 20.5162C250.44 20.8454 250.49 21.1582 250.588 21.4545C250.72 21.7179 250.951 21.9978 251.28 22.2941C251.642 22.5575 252.136 22.8373 252.761 23.1337C253.387 23.43 254.194 23.7428 255.181 24.072C257.684 24.8951 259.445 25.9322 260.466 27.1834C261.486 28.4345 261.997 29.9161 261.997 31.6282C261.997 32.7147 261.783 33.7189 261.355 34.6408C260.96 35.5627 260.367 36.3693 259.577 37.0607C258.82 37.7522 257.865 38.2789 256.712 38.6411C255.593 39.0362 254.309 39.2338 252.86 39.2338C249.831 39.2338 247.576 38.5259 246.094 37.1101C244.646 35.6614 243.855 33.7848 243.724 31.48H249.699C249.765 32.4348 250.062 33.2086 250.588 33.8012C251.115 34.3939 251.922 34.6902 253.008 34.6902C253.864 34.6902 254.523 34.4432 254.984 33.9494C255.478 33.4555 255.725 32.8629 255.725 32.1715C255.725 31.3483 255.379 30.6569 254.688 30.0972C254.029 29.5375 252.811 28.9613 251.033 28.3687C248.794 27.6443 247.098 26.706 245.946 25.5536C244.827 24.4013 244.267 22.8867 244.267 21.01C244.267 19.9565 244.464 19.0016 244.86 18.1456C245.288 17.2566 245.88 16.5158 246.637 15.9232C247.395 15.2976 248.284 14.8202 249.304 14.491C250.358 14.1288 251.527 13.9477 252.811 13.9477C255.445 13.9477 257.47 14.6227 258.885 15.9726C260.334 17.3225 261.19 19.0346 261.453 21.1088H255.576Z" fill="white"/>
</svg>
